<svg xmlns="http://www.w3.org/2000/svg" width="128" height="128" viewBox="0 0 128 128">
  <title>NEWSLETTER</title>
  <g>
    <path d="M18.064,121.693A11.757,11.757,0,0,1,6.307,109.935V6.307H98.178V109.935a11.757,11.757,0,0,0,11.757,11.758Z" fill="#dff6fd"/>
    <path d="M98.178,109.935a11.757,11.757,0,0,0,11.757,11.758h0a11.758,11.758,0,0,0,11.758-11.758V48.9H98.178Z" fill="#c8effe"/>
    <rect x="21.173" y="48.902" width="28.963" height="28.963" fill="#9cf8d2"/>
    <g>
      <path d="M121.693,47.151H99.928V6.307a1.75,1.75,0,0,0-1.75-1.75H6.307a1.75,1.75,0,0,0-1.75,1.75V23.289a1.75,1.75,0,0,0,3.5,0V8.057H96.428V109.935a13.461,13.461,0,0,0,4.467,10.008H18.064A10.018,10.018,0,0,1,8.057,109.935V32.651a1.75,1.75,0,1,0-3.5,0v77.284a13.523,13.523,0,0,0,13.507,13.508h91.871a13.522,13.522,0,0,0,13.508-13.508v-4.7a1.75,1.75,0,0,0-3.5,0v4.7a10.008,10.008,0,1,1-20.015,0V50.651h20.015V81.84a1.75,1.75,0,0,0,3.5,0V48.9A1.75,1.75,0,0,0,121.693,47.151Z"/>
      <path d="M121.693,89.746a1.75,1.75,0,0,0-1.75,1.75v4.5a1.75,1.75,0,0,0,3.5,0V91.5A1.749,1.749,0,0,0,121.693,89.746Z"/>
      <path d="M21.173,108.577H83.311a1.75,1.75,0,0,0,0-3.5H21.173a1.75,1.75,0,0,0,0,3.5Z"/>
      <path d="M62.867,48.9a1.75,1.75,0,0,0,1.75,1.75H83.311a1.75,1.75,0,0,0,0-3.5H64.617A1.751,1.751,0,0,0,62.867,48.9Z"/>
      <path d="M83.311,61.633H64.617a1.75,1.75,0,1,0,0,3.5H83.311a1.75,1.75,0,1,0,0-3.5Z"/>
      <path d="M83.311,76.114H64.617a1.75,1.75,0,0,0,0,3.5H83.311a1.75,1.75,0,0,0,0-3.5Z"/>
      <path d="M21.173,94.1H83.311a1.75,1.75,0,0,0,0-3.5H21.173a1.75,1.75,0,0,0,0,3.5Z"/>
      <polygon points="22.704 24.78 29.891 34.42 33.104 34.42 33.104 19.503 29.891 19.503 29.891 29.144 22.704 19.503 19.512 19.503 19.512 34.42 22.704 34.42 22.704 24.78"/>
      <polygon points="47.68 22.391 47.68 19.503 36.193 19.503 36.193 34.42 47.68 34.42 47.68 31.533 39.407 31.533 39.407 28.253 46.898 28.253 46.898 25.366 39.407 25.366 39.407 22.391 47.68 22.391"/>
      <polygon points="65.38 29.513 62.08 19.503 58.606 19.503 55.306 29.513 52.548 19.503 49.074 19.503 53.59 34.42 56.826 34.42 60.365 24.171 63.882 34.42 67.096 34.42 71.611 19.503 68.138 19.503 65.38 29.513"/>
      <path d="M79.306,31.967A7.365,7.365,0,0,1,74.4,30.012l-1.845,2.194a9.585,9.585,0,0,0,6.623,2.475c3.647,0,5.8-1.89,5.8-4.733,0-2.758-2.128-3.713-5.341-4.43-2.3-.522-3.193-.868-3.193-1.954,0-.891.826-1.608,2.194-1.608a6.919,6.919,0,0,1,4.256,1.651l1.672-2.3a8.615,8.615,0,0,0-5.841-2.062c-3.257,0-5.516,1.889-5.516,4.646,0,2.888,2.237,3.778,5.386,4.5,2.279.521,3.148.847,3.148,1.91C81.738,31.229,80.913,31.967,79.306,31.967Z"/>
      <path d="M19.423,77.864a1.749,1.749,0,0,0,1.75,1.75H50.136a1.75,1.75,0,0,0,1.75-1.75V48.9a1.751,1.751,0,0,0-1.75-1.75H21.173a1.75,1.75,0,0,0-1.75,1.75Zm3.5-27.213H48.386V76.114H22.923Z"/>
    </g>
  </g>
</svg>
